<?xml version="1.0" standalone="no"?>
<!DOCTYPE svg PUBLIC "-//W3C//DTD SVG 20010904//EN"
 "http://www.w3.org/TR/2001/REC-SVG-20010904/DTD/svg10.dtd">
<svg version="1.0" xmlns="http://www.w3.org/2000/svg"
 width="512.000000pt" height="512.000000pt" viewBox="0 0 512.000000 512.000000"
 preserveAspectRatio="xMidYMid meet">
<metadata>
Created by potrace 1.16, written by Peter Selinger 2001-2019
</metadata>
<g transform="translate(0.000000,512.000000) scale(0.100000,-0.100000)"
fill="#000000" stroke="none">
<path d="M1575 4746 c-528 -117 -995 -221 -1038 -230 l-77 -17 1 -1097 c1
-603 4 -1110 8 -1126 3 -17 5 475 3 1092 l-2 1121 37 10 c21 5 492 109 1047
231 l1008 222 210 -47 c115 -26 212 -45 214 -42 5 5 -415 98 -436 96 -8 -1
-447 -97 -975 -213z"/>
<path d="M4645 3373 c0 -620 3 -1114 6 -1097 9 42 11 2224 2 2224 -5 0 -8
-507 -8 -1127z"/>
<path d="M2915 2470 c-3 -5 2 -10 12 -11 10 0 13 -3 6 -5 -7 -3 -21 0 -33 6
-16 8 -25 8 -35 0 -10 -8 -14 -8 -18 2 -4 9 -15 3 -35 -19 -33 -39 -35 -80 -3
-114 25 -27 27 -63 6 -112 -9 -21 -12 -48 -9 -66 8 -41 -12 -89 -46 -106 -15
-8 -56 -15 -91 -17 -56 -3 -64 -1 -63 15 1 9 -11 27 -27 38 -17 11 -36 35 -44
52 -15 31 -15 31 -10 4 5 -27 4 -27 -17 -16 -23 12 -23 12 -4 -9 10 -12 23
-20 30 -19 6 1 11 -5 11 -13 0 -8 8 -26 18 -40 9 -13 17 -37 17 -52 0 -16 6
-28 13 -28 8 0 8 -3 -2 -9 -10 -7 -20 -2 -34 15 -19 24 -19 25 -1 39 18 13 18
14 2 20 -10 4 -18 11 -18 16 0 5 -8 18 -17 29 -12 14 -20 16 -29 9 -9 -7 -22
-6 -43 5 -40 21 -44 31 -27 64 17 32 13 42 -16 42 -15 0 -16 -3 -6 -19 10 -16
9 -23 -6 -39 -10 -12 -25 -18 -37 -15 -13 4 -19 0 -19 -11 0 -10 18 -24 46
-36 52 -23 68 -25 58 -8 -5 7 -3 8 5 4 7 -5 10 -11 7 -14 -10 -9 33 -34 46
-26 7 4 8 3 4 -5 -5 -7 3 -20 18 -32 25 -20 35 -53 18 -62 -18 -12 -66 9 -98
41 -19 19 -34 32 -34 27 0 -18 24 -85 30 -85 12 0 33 -59 26 -75 -4 -12 0 -14
20 -9 19 5 38 -3 82 -32 l57 -39 118 -3 c90 -3 120 -7 124 -18 7 -20 24 -17
58 10 29 23 29 24 12 50 -17 26 -17 27 7 59 13 17 28 45 32 61 l7 28 -42 -30
c-54 -39 -92 -48 -131 -29 -19 10 -32 12 -36 5 -7 -11 -24 9 -24 27 0 6 4 3
10 -5 14 -22 22 -6 11 23 -8 22 -6 29 18 49 15 12 22 20 17 17 -6 -4 -17 -1
-23 7 -11 11 -8 12 18 9 37 -5 61 3 52 18 -3 5 -1 7 4 4 11 -7 119 25 134 40
4 4 4 15 -1 23 -7 10 -10 11 -10 3 0 -19 -21 -16 -36 5 -17 22 -18 49 -1 55 6
3 1 6 -12 6 -22 1 -23 -2 -18 -36 6 -34 3 -40 -25 -60 -33 -23 -48 -22 -48 3
0 8 -5 14 -12 14 -6 0 -9 2 -6 6 3 3 2 22 -3 42 -6 26 -4 45 8 69 8 18 17 33
20 33 2 0 16 -9 31 -20 15 -11 41 -23 59 -26 27 -5 32 -3 35 17 2 18 10 25 31
27 31 4 35 -5 10 -24 -10 -7 -15 -15 -11 -19 10 -10 46 13 52 32 17 62 17 68
6 53 -10 -12 -11 -12 -5 5 19 57 17 75 -9 109 -43 57 -116 100 -131 76z"/>
<path d="M2212 2035 c-18 -39 -14 -86 9 -124 11 -18 18 -39 15 -47 -7 -18 31
-64 54 -64 9 0 23 7 30 15 7 8 25 15 41 15 33 0 39 23 16 55 -13 16 -14 15 -9
-13 2 -20 0 -32 -7 -32 -6 0 -11 8 -12 18 0 14 -2 14 -9 -3 -7 -17 -9 -15 -9
13 -1 17 3 32 8 32 4 0 8 10 7 22 -1 16 -9 24 -26 28 -44 9 -64 26 -66 58 -4
56 -23 68 -42 27z"/>
<path d="M2445 1480 c16 -18 16 -21 2 -44 -16 -24 -16 -25 11 -29 19 -3 15 -4
-14 -6 -47 -1 -66 14 -57 47 4 18 8 20 27 10 21 -11 21 -11 2 10 -14 16 -21
18 -31 9 -7 -7 -11 -15 -8 -20 12 -19 -28 -38 -79 -36 -29 1 -61 -2 -72 -6
-14 -6 -24 0 -43 24 -24 31 -26 31 -44 15 -23 -21 -24 -40 -3 -52 15 -8 15
-11 1 -33 -18 -27 -26 -112 -14 -146 6 -18 5 -23 -7 -23 -9 0 -16 -5 -16 -10
0 -6 -11 -8 -25 -4 -15 4 -25 2 -25 -5 0 -6 10 -11 23 -12 21 0 21 -1 2 -9
-11 -5 -29 -11 -40 -15 -15 -5 -17 -8 -6 -15 9 -5 23 -3 36 6 18 12 23 11 37
-6 16 -18 16 -19 0 -24 -9 -3 -52 -4 -95 -3 -78 2 -108 -6 -64 -16 12 -3 55
-6 96 -6 40 0 76 -2 78 -5 3 -3 12 1 20 9 8 8 25 15 38 15 13 0 27 5 30 10 3
6 18 9 33 9 24 -2 24 -2 5 -6 -13 -2 -23 -8 -23 -14 0 -12 33 -18 126 -21 61
-2 80 0 77 9 -7 17 46 28 68 14 10 -6 29 -11 42 -11 13 0 29 -6 36 -12 11 -10
13 -10 7 0 -5 7 -1 12 10 12 12 0 15 7 12 29 -3 21 -1 28 9 24 15 -6 17 6 4
26 -6 9 -6 22 0 33 7 13 6 18 -4 18 -19 0 -43 29 -50 61 -8 32 11 59 41 62 16
1 21 6 16 17 -4 8 -7 23 -8 32 0 14 -9 16 -56 13 -44 -3 -51 -1 -33 7 12 6 24
17 27 24 8 20 -11 17 -22 -2 -13 -23 -67 -11 -58 12 7 18 -10 54 -26 54 -6 0
-3 -9 7 -20z"/>
</g>
</svg>
