<?xml version="1.0" standalone="no"?>
<!DOCTYPE svg PUBLIC "-//W3C//DTD SVG 20010904//EN"
 "http://www.w3.org/TR/2001/REC-SVG-20010904/DTD/svg10.dtd">
<svg version="1.0" xmlns="http://www.w3.org/2000/svg"
 width="512.000000pt" height="512.000000pt" viewBox="0 0 512.000000 512.000000"
 preserveAspectRatio="xMidYMid meet">
<metadata>
Created by potrace 1.16, written by Peter Selinger 2001-2019
</metadata>
<g transform="translate(0.000000,512.000000) scale(0.100000,-0.100000)"
fill="#000000" stroke="none">
<path d="M1510 4729 c-569 -125 -1036 -229 -1038 -229 -1 0 -1 -528 1 -1172
l3 -1173 28 -115 c112 -459 385 -846 801 -1132 177 -121 1246 -770 1263 -766
17 5 1125 686 1237 761 228 153 460 390 593 609 100 163 171 337 218 528 l28
115 3 1172 c3 1116 3 1172 -14 1177 -35 10 -2070 456 -2079 455 -5 0 -475
-104 -1044 -230z m1020 -769 l0 -670 -870 0 -870 0 0 475 c0 261 1 475 3 475
1 1 389 88 862 194 473 107 863 194 868 195 4 0 7 -300 7 -669z m930 475 c459
-102 843 -188 853 -191 16 -5 17 -37 17 -480 l0 -474 -875 0 -875 0 0 671 0
671 23 -5 c12 -3 398 -89 857 -192z m870 -1684 c0 -544 -3 -584 -66 -771 -72
-215 -198 -415 -374 -591 -155 -155 -176 -169 -930 -634 -168 -103 -321 -199
-340 -211 -44 -30 -76 -30 -120 0 -20 13 -206 129 -415 258 -560 345 -579 357
-673 428 -112 83 -281 253 -355 357 -109 153 -189 326 -239 516 -21 78 -22
108 -25 610 l-4 527 1770 0 1771 0 0 -489z"/>
<path d="M1530 3865 l0 -345 105 0 105 0 0 345 0 345 -105 0 -105 0 0 -345z"/>
<path d="M3150 3865 l0 -345 290 0 290 0 0 80 0 80 -185 0 -185 0 0 65 0 65
165 0 165 0 0 70 0 70 -165 0 -165 0 0 50 0 50 180 0 180 0 0 80 0 80 -285 0
-285 0 0 -345z"/>
<path d="M2440 2971 c0 -5 9 -12 19 -16 16 -5 20 -17 23 -64 l3 -58 -74 68
c-67 64 -76 69 -117 69 -48 0 -59 -14 -19 -24 23 -6 25 -11 25 -65 0 -33 3
-66 6 -74 3 -9 -4 -25 -15 -36 -28 -28 -27 -31 13 -31 58 0 89 22 48 33 -20 5
-32 44 -32 106 l0 36 89 -89 c57 -57 91 -84 96 -76 4 6 4 51 0 100 -7 83 -6
89 14 102 33 20 25 28 -29 28 -27 0 -50 -4 -50 -9z"/>
<path d="M2550 2970 c0 -5 9 -10 20 -10 19 0 20 -7 20 -91 0 -82 -2 -91 -20
-96 -38 -10 -19 -18 50 -21 129 -5 190 30 190 110 0 47 -21 82 -58 96 -39 15
-202 24 -202 12z m185 -42 c27 -32 30 -70 11 -123 -8 -20 -7 -20 8 -1 9 11 16
15 16 9 0 -13 -35 -45 -42 -38 -2 3 -19 0 -37 -6 -51 -18 -61 -1 -61 96 0 45
3 85 7 88 3 4 21 7 39 7 24 0 39 -8 59 -32z"/>
<path d="M2155 2963 c-16 -1 -54 -6 -82 -9 -53 -5 -69 -18 -35 -26 14 -4 20
-19 25 -59 11 -89 9 -117 -10 -128 -10 -5 -15 -12 -12 -15 8 -8 202 13 210 22
11 12 20 62 10 62 -5 0 -14 -7 -22 -16 -17 -21 -63 -44 -87 -44 -20 0 -32 25
-32 68 0 18 6 22 29 22 16 0 31 -6 35 -15 12 -31 24 -13 19 28 -7 53 -10 56
-29 29 -21 -30 -52 -28 -60 3 -3 14 -4 32 0 40 7 20 59 19 97 -1 37 -19 43
-15 28 20 -12 26 -17 27 -84 19z"/>
<path d="M2853 2955 c31 -22 20 -194 -12 -196 -41 -1 30 -17 105 -22 80 -6 81
-6 93 20 17 38 3 42 -26 8 -14 -16 -23 -25 -20 -20 3 6 -12 10 -36 10 l-42 0
-3 48 c-3 41 -1 47 17 47 31 0 51 -11 51 -29 0 -14 2 -14 10 -1 5 8 10 28 10
43 0 26 -1 27 -16 13 -8 -9 -29 -16 -46 -16 -30 0 -30 1 -23 38 9 48 17 55 54
47 17 -3 33 -6 36 -5 4 0 15 -9 26 -22 l20 -23 -3 24 c-4 29 -27 37 -137 44
-61 4 -72 2 -58 -8z"/>
<path d="M1953 2943 c-38 -5 -40 -9 -13 -31 25 -21 45 -124 29 -154 -14 -26
-55 -41 -80 -28 -20 11 -25 24 -39 110 -7 46 -6 57 8 67 25 20 10 23 -56 12
-58 -10 -86 -29 -43 -29 15 0 20 -13 30 -75 10 -60 17 -79 38 -95 30 -24 70
-26 118 -6 47 20 55 40 48 128 -4 51 -2 77 6 82 15 10 14 26 -1 24 -7 0 -28
-3 -45 -5z"/>
<path d="M3170 2932 c0 -3 7 -10 16 -16 14 -11 14 -22 4 -95 -11 -69 -16 -84
-34 -90 -20 -8 -20 -8 -1 -14 11 -3 43 -8 70 -11 43 -5 47 -4 27 6 -19 10 -23
17 -18 41 3 16 6 36 6 43 0 22 47 17 63 -6 13 -18 15 -19 21 -5 3 9 6 29 6 43
0 20 -3 23 -9 13 -5 -8 -8 -19 -7 -25 2 -6 1 -8 -1 -3 -3 4 -18 7 -34 7 -26 0
-29 3 -29 33 0 49 12 61 51 51 19 -4 39 -7 44 -5 6 1 7 -1 2 -5 -7 -7 20 -44
33 -44 11 0 -1 51 -14 55 -24 8 -196 32 -196 27z"/>
<path d="M3414 2885 c17 -13 18 -19 6 -82 -17 -97 -19 -103 -42 -112 -15 -5 7
-13 80 -28 l102 -20 16 24 c19 30 12 40 -15 21 -12 -8 -18 -17 -15 -21 10 -9
-80 5 -93 15 -12 9 -11 26 3 80 4 13 11 15 34 8 16 -4 31 -5 35 -2 4 4 6 2 5
-3 -1 -5 -1 -17 0 -25 2 -18 18 26 19 55 0 18 0 19 -10 3 -10 -19 -63 -25 -73
-10 -9 15 14 82 29 82 7 0 26 -5 42 -11 15 -6 30 -9 32 -7 2 2 7 -7 12 -19 5
-13 13 -23 19 -23 10 0 5 36 -6 49 -3 4 -173 40 -189 40 -5 0 -2 -6 9 -14z"/>
<path d="M1555 2873 c-69 -16 -95 -25 -95 -33 0 -6 8 -10 19 -10 15 0 22 -15
38 -82 17 -74 18 -84 5 -95 -26 -21 -7 -25 55 -13 132 27 184 74 169 153 -10
55 -55 87 -119 86 -29 -1 -61 -3 -72 -6z m100 -37 c35 -35 43 -91 18 -124 -20
-28 -67 -51 -79 -39 -3 3 -15 43 -25 88 -16 66 -17 84 -7 91 25 15 69 8 93
-16z"/>
<path d="M3653 2836 c18 -14 17 -17 -5 -103 -18 -69 -27 -88 -41 -87 -9 1 -17
-1 -17 -5 0 -3 45 -18 100 -32 95 -24 101 -24 116 -8 25 28 13 44 -16 21 -20
-16 -30 -18 -59 -10 -20 6 -39 13 -43 17 -4 3 3 44 15 91 19 73 25 85 47 90
21 5 18 8 -25 19 -27 6 -59 14 -70 17 -19 5 -19 4 -2 -10z"/>
<path d="M1193 2779 c-61 -19 -83 -39 -44 -39 16 0 25 -16 45 -82 24 -77 24
-84 9 -95 -33 -25 -4 -24 88 3 99 29 119 43 119 81 0 32 -10 29 -42 -11 -24
-30 -73 -54 -85 -42 -3 2 -16 42 -29 87 -22 77 -23 83 -6 95 30 22 9 23 -55 3z"/>
<path d="M978 2708 c-86 -29 -111 -48 -64 -48 20 0 27 -11 51 -76 23 -64 26
-80 16 -96 -7 -11 -11 -21 -9 -23 2 -2 46 11 98 29 95 33 95 33 98 70 3 38
-12 50 -23 16 -8 -27 -53 -60 -80 -60 -16 0 -25 8 -29 24 -3 13 -8 31 -12 39
-8 22 47 33 62 12 18 -24 25 -3 12 38 -11 37 -28 50 -28 22 0 -19 -47 -42 -60
-29 -5 5 -12 21 -15 35 -6 24 -3 28 27 38 25 8 43 8 67 0 40 -14 50 -6 26 21
-23 25 -32 25 -137 -12z"/>
<path d="M4015 2711 c-18 -36 -18 -36 24 -15 31 16 52 14 107 -6 22 -9 24 -13
14 -25 -7 -8 -17 -15 -23 -15 -6 0 -2 7 9 16 18 14 18 15 -3 4 -13 -6 -22 -16
-20 -22 1 -6 -4 -13 -12 -16 -9 -3 -11 0 -6 8 5 9 4 11 -4 6 -6 -4 -8 -12 -5
-18 5 -7 1 -9 -9 -5 -9 3 -19 1 -23 -5 -5 -7 -2 -8 6 -3 9 6 11 4 6 -4 -5 -7
-14 -10 -22 -7 -7 3 -16 0 -20 -6 -5 -7 -2 -8 6 -3 9 5 11 4 6 -4 -4 -6 -15
-10 -24 -9 -9 2 -17 -3 -17 -10 0 -17 -25 -32 -42 -25 -7 3 -13 1 -13 -3 0 -5
40 -23 90 -40 l89 -32 20 31 c11 17 18 33 16 35 -8 8 -45 -20 -45 -33 0 -8 -5
-15 -11 -15 -5 0 -7 5 -4 10 4 6 -6 10 -22 10 -34 0 -73 10 -73 19 0 3 48 37
107 75 l106 69 -74 27 c-123 45 -116 45 -134 11z"/>
<path d="M2915 2470 c-3 -5 2 -10 12 -11 10 0 13 -3 6 -5 -7 -3 -21 0 -33 6
-16 8 -25 8 -35 0 -10 -8 -14 -8 -18 2 -4 9 -15 3 -35 -19 -33 -39 -35 -80 -3
-114 25 -27 27 -63 6 -112 -9 -21 -12 -48 -9 -66 8 -41 -12 -89 -46 -106 -15
-8 -56 -15 -91 -17 -56 -3 -64 -1 -63 15 1 9 -11 27 -27 38 -17 11 -36 35 -44
52 -15 31 -15 31 -10 4 5 -27 4 -27 -17 -16 -23 12 -23 12 -4 -9 10 -12 23
-20 30 -19 6 1 11 -5 11 -13 0 -8 8 -26 18 -40 9 -13 17 -37 17 -52 0 -16 6
-28 13 -28 8 0 8 -3 -2 -9 -10 -7 -20 -2 -34 15 -19 24 -19 25 -1 39 18 13 18
14 2 20 -10 4 -18 11 -18 16 0 5 -8 18 -17 29 -12 14 -20 16 -29 9 -9 -7 -22
-6 -43 5 -40 21 -44 31 -27 64 17 32 13 42 -16 42 -15 0 -16 -3 -6 -19 10 -16
9 -23 -6 -39 -10 -12 -25 -18 -37 -15 -13 4 -19 0 -19 -11 0 -10 18 -24 46
-36 52 -23 68 -25 58 -8 -5 7 -3 8 5 4 7 -5 10 -11 7 -14 -10 -9 33 -34 46
-26 7 4 8 3 4 -5 -5 -7 3 -20 18 -32 25 -20 35 -53 18 -62 -18 -12 -66 9 -98
41 -19 19 -34 32 -34 27 0 -18 24 -85 30 -85 12 0 33 -59 26 -75 -4 -12 0 -14
20 -9 19 5 38 -3 82 -32 l57 -39 118 -3 c90 -3 120 -7 124 -18 7 -20 24 -17
58 10 29 23 29 24 12 50 -17 26 -17 27 7 59 13 17 28 45 32 61 l7 28 -42 -30
c-54 -39 -92 -48 -131 -29 -19 10 -32 12 -36 5 -7 -11 -24 9 -24 27 0 6 4 3
10 -5 14 -22 22 -6 11 23 -8 22 -6 29 18 49 15 12 22 20 17 17 -6 -4 -17 -1
-23 7 -11 11 -8 12 18 9 37 -5 61 3 52 18 -3 5 -1 7 4 4 11 -7 119 25 134 40
4 4 4 15 -1 23 -7 10 -10 11 -10 3 0 -19 -21 -16 -36 5 -17 22 -18 49 -1 55 6
3 1 6 -12 6 -22 1 -23 -2 -18 -36 6 -34 3 -40 -25 -60 -33 -23 -48 -22 -48 3
0 8 -5 14 -12 14 -6 0 -9 2 -6 6 3 3 2 22 -3 42 -6 26 -4 45 8 69 8 18 17 33
20 33 2 0 16 -9 31 -20 15 -11 41 -23 59 -26 27 -5 32 -3 35 17 2 18 10 25 31
27 31 4 35 -5 10 -24 -10 -7 -15 -15 -11 -19 10 -10 46 13 52 32 17 62 17 68
6 53 -10 -12 -11 -12 -5 5 19 57 17 75 -9 109 -43 57 -116 100 -131 76z"/>
<path d="M2212 2035 c-18 -39 -14 -86 9 -124 11 -18 18 -39 15 -47 -7 -18 31
-64 54 -64 9 0 23 7 30 15 7 8 25 15 41 15 33 0 39 23 16 55 -13 16 -14 15 -9
-13 2 -20 0 -32 -7 -32 -6 0 -11 8 -12 18 0 14 -2 14 -9 -3 -7 -17 -9 -15 -9
13 -1 17 3 32 8 32 4 0 8 10 7 22 -1 16 -9 24 -26 28 -44 9 -64 26 -66 58 -4
56 -23 68 -42 27z"/>
<path d="M2445 1480 c16 -18 16 -21 2 -44 -16 -24 -16 -25 11 -29 19 -3 15 -4
-14 -6 -47 -1 -66 14 -57 47 4 18 8 20 27 10 21 -11 21 -11 2 10 -14 16 -21
18 -31 9 -7 -7 -11 -15 -8 -20 12 -19 -28 -38 -79 -36 -29 1 -61 -2 -72 -6
-14 -6 -24 0 -43 24 -24 31 -26 31 -44 15 -23 -21 -24 -40 -3 -52 15 -8 15
-11 1 -33 -18 -27 -26 -112 -14 -146 6 -18 5 -23 -7 -23 -9 0 -16 -5 -16 -10
0 -6 -11 -8 -25 -4 -15 4 -25 2 -25 -5 0 -6 10 -11 23 -12 21 0 21 -1 2 -9
-11 -5 -29 -11 -40 -15 -15 -5 -17 -8 -6 -15 9 -5 23 -3 36 6 18 12 23 11 37
-6 16 -18 16 -19 0 -24 -9 -3 -52 -4 -95 -3 -78 2 -108 -6 -64 -16 12 -3 55
-6 96 -6 40 0 76 -2 78 -5 3 -3 12 1 20 9 8 8 25 15 38 15 13 0 27 5 30 10 3
6 18 9 33 9 24 -2 24 -2 5 -6 -13 -2 -23 -8 -23 -14 0 -12 33 -18 126 -21 61
-2 80 0 77 9 -7 17 46 28 68 14 10 -6 29 -11 42 -11 13 0 29 -6 36 -12 11 -10
13 -10 7 0 -5 7 -1 12 10 12 12 0 15 7 12 29 -3 21 -1 28 9 24 15 -6 17 6 4
26 -6 9 -6 22 0 33 7 13 6 18 -4 18 -19 0 -43 29 -50 61 -8 32 11 59 41 62 16
1 21 6 16 17 -4 8 -7 23 -8 32 0 14 -9 16 -56 13 -44 -3 -51 -1 -33 7 12 6 24
17 27 24 8 20 -11 17 -22 -2 -13 -23 -67 -11 -58 12 7 18 -10 54 -26 54 -6 0
-3 -9 7 -20z"/>
</g>
</svg>
