<?xml version="1.0" standalone="no"?>
<!DOCTYPE svg PUBLIC "-//W3C//DTD SVG 20010904//EN"
 "http://www.w3.org/TR/2001/REC-SVG-20010904/DTD/svg10.dtd">
<svg version="1.0" xmlns="http://www.w3.org/2000/svg"
 width="393.000000pt" height="100.000000pt" viewBox="0 0 393.000000 100.000000"
 preserveAspectRatio="xMidYMid meet">
<metadata>
Created by potrace 1.16, written by Peter Selinger 2001-2019
</metadata>
<g transform="translate(0.000000,100.000000) scale(0.100000,-0.100000)"
fill="#000000" stroke="none">
<path d="M927 920 c-172 -31 -323 -114 -440 -239 -125 -136 -197 -319 -197
-508 0 -82 15 -69 17 14 3 133 65 289 161 409 50 62 157 154 179 154 21 0 175
-161 169 -176 -9 -23 5 -44 29 -44 13 0 26 7 29 16 7 18 -10 44 -27 44 -10 0
-178 156 -185 172 -5 11 138 75 218 98 215 60 477 22 655 -96 37 -24 61 -36
54 -28 -42 51 -191 131 -306 165 -77 23 -277 34 -356 19z"/>
<path d="M427 322 c-19 -21 -22 -49 -7 -72 7 -12 38 -16 131 -20 85 -3 124 -9
127 -17 3 -10 -28 -13 -133 -13 -136 0 -136 0 -133 -22 3 -22 7 -23 133 -26
150 -2 178 6 183 54 5 56 -14 64 -149 64 -65 0 -119 4 -119 9 0 15 42 21 158
21 105 0 112 1 112 20 0 19 -7 20 -143 20 -127 0 -146 -2 -160 -18z"/>
<path d="M1030 305 l0 -35 -130 0 c-71 0 -130 -4 -130 -8 0 -20 28 -32 77 -32
l53 0 0 -41 c0 -36 2 -40 23 -37 18 2 23 10 25 41 l3 37 53 0 c28 0 57 5 64
12 7 7 12 31 12 55 0 39 -2 43 -25 43 -22 0 -25 -4 -25 -35z"/>
<path d="M1138 329 c-21 -12 -24 -71 -5 -87 7 -7 66 -13 133 -14 165 -4 156
-22 -13 -26 -122 -2 -133 -4 -133 -21 0 -25 26 -31 150 -31 125 0 154 11 158
58 6 57 -7 62 -139 62 -109 0 -144 8 -103 24 9 3 67 6 130 6 107 0 114 1 114
20 0 19 -7 20 -137 20 -76 0 -146 -5 -155 -11z"/>
<path d="M1470 320 c0 -17 8 -19 66 -22 l67 -3 1 -70 c1 -64 3 -70 23 -73 21
-3 22 1 25 70 l3 73 68 3 c59 3 67 5 67 22 0 19 -8 20 -160 20 -152 0 -160 -1
-160 -20z"/>
<path d="M2180 321 c0 -13 8 -21 22 -23 15 -2 39 -27 71 -73 27 -40 55 -70 65
-70 10 0 33 27 57 67 22 37 44 67 48 68 5 0 7 -30 6 -67 -2 -63 -1 -68 19 -71
21 -3 22 0 22 92 l0 96 -35 0 c-33 0 -39 -5 -73 -60 -20 -33 -40 -60 -44 -60
-4 0 -26 27 -49 60 -37 53 -46 60 -75 60 -27 0 -34 -4 -34 -19z"/>
<path d="M2647 322 c-23 -25 -21 -29 11 -24 18 2 33 -2 41 -12 12 -14 8 -16
-37 -16 -49 0 -50 -1 -86 -53 -41 -60 -43 -67 -18 -67 10 0 33 18 51 40 29 37
36 40 80 40 44 0 50 -3 80 -40 18 -22 41 -40 51 -40 11 0 20 2 20 5 0 2 -28
45 -62 95 -52 75 -67 90 -89 90 -14 0 -33 -8 -42 -18z"/>
<path d="M2880 320 c0 -17 8 -19 68 -22 l67 -3 1 -70 c1 -63 3 -70 22 -73 20
-3 21 2 24 70 l3 73 68 3 c59 3 67 5 67 22 0 19 -8 20 -160 20 -152 0 -160 -1
-160 -20z"/>
<path d="M3337 322 c-21 -24 -23 -120 -3 -148 13 -17 27 -19 158 -19 141 0
143 0 146 23 3 22 2 22 -113 22 -132 0 -155 7 -155 51 0 41 27 49 161 49 102
0 109 1 109 20 0 19 -7 20 -143 20 -127 0 -146 -2 -160 -18z"/>
<path d="M1825 247 c-9 -34 11 -76 40 -87 29 -11 216 -13 253 -4 13 4 22 14
22 25 0 18 -9 19 -135 19 -113 0 -135 2 -135 15 0 13 22 15 135 15 128 0 135
1 135 20 0 19 -7 20 -155 20 -153 0 -155 0 -160 -23z"/>
</g>
</svg>
